<?xml version="1.0" encoding="UTF-8"?>
<svg id="Layer_1" data-name="Layer 1" xmlns="http://www.w3.org/2000/svg" viewBox="0 0 2407.42 230.3">
  <g>
    <path d="M681.94,78.7h-97.32v72.91h97.32v-20.58s-60.71,0-61.16,0c-1.07,0-2.05.69-3,1.5-1.06.91-2.37,2.01-3.43,3.07,1.04-1.08,2.13-2.41,3.02-3.48.58-.7,1.13-1.42,1.38-2.17v-3.42c-.26-.75-.8-1.48-1.38-2.17-.89-1.07-1.98-2.4-3.02-3.48,1.06,1.06,2.38,2.16,3.43,3.07.94.81,1.92,1.49,2.99,1.5h61.17v-20.58h-61.16c-1.07,0-2.05.69-3,1.5-1.06.91-2.37,2.01-3.43,3.07,1.04-1.08,2.13-2.41,3.02-3.48.58-.7,1.13-1.42,1.38-2.17v-3.42c-.26-.75-.8-1.48-1.38-2.17-.89-1.07-1.98-2.4-3.02-3.48,1.06,1.06,2.38,2.16,3.43,3.07.95.81,1.93,1.5,3,1.5h61.16v-20.58Z"/>
    <rect x="1132.46" y="78.7" width="34.13" height="72.91"/>
    <path d="M523.19,95.62c14.9,0,21.68,1.55,22.44,6.41h34.13c-1.03-18.27-16.44-25.4-55.95-25.4-36.08,0-55.11,5.66-55.11,25.55s17.62,22.15,33.5,22.75c15.87.61,32.07.85,36.2,1.03,5.79.25,7.24,1.35,7.24,3.83,0,3.51-6,4.82-20.68,4.82s-20.17-1.93-20.99-7.03h-36.71c.37,19,16.13,26.1,57.19,26.1s55.33-7.34,55.33-26.68c0-14.79-8.79-21.37-31.44-22.09-3.45-.11-32.57-1.13-37.33-1.33-6.31-.27-8.16-.98-8.16-3.5,0-3.07,5.05-4.45,20.36-4.45Z"/>
    <path d="M890.09,104.9c-3.45-.11-32.57-1.13-37.33-1.33-6.31-.27-8.16-.98-8.16-3.5,0-3.07,5.05-4.45,20.36-4.45s21.68,1.55,22.44,6.41h34.13c-1.03-18.27-16.44-25.4-55.95-25.4-36.08,0-55.11,5.66-55.11,25.55s17.62,22.15,33.5,22.75c15.87.61,32.07.85,36.2,1.03,5.79.25,7.24,1.35,7.24,3.83,0,3.51-6,4.82-20.68,4.82s-20.17-1.93-20.99-7.03h-36.71c.37,19,16.13,26.1,57.19,26.1s55.33-7.34,55.33-26.68c0-14.79-8.79-21.37-31.44-22.09Z"/>
    <path d="M2198.95,113.45c0,10.76-6.51,14.89-23.58,14.89s-23.58-4.14-23.58-14.89v-34.75h-34.13v38.78c0,26.17,16.03,36.2,57.71,36.2s57.71-10.03,57.71-36.2v-38.78h-34.13v34.75Z"/>
    <path d="M1234.92,76.63c-50.68,0-64.12,14.95-64.12,38.52s13.44,38.52,64.12,38.52,64.12-14.95,64.12-38.52-13.44-38.52-64.12-38.52ZM1234.92,129.37c-22.48,0-28.44-4.72-28.44-14.22s5.96-14.22,28.44-14.22,28.44,4.72,28.44,14.22-5.96,14.22-28.44,14.22Z"/>
    <path d="M2272.95,99.28h61.16v-20.58h-97.32v72.91h97.32v-20.58h-61.86c-.8.22-1.56.77-2.3,1.4-1.06.91-2.37,2.01-3.43,3.07,1.04-1.08,2.13-2.41,3.02-3.48.58-.7,1.13-1.42,1.38-2.17v-3.22c-.26-.75-.8-1.48-1.38-2.17-.89-1.07-1.98-2.4-3.02-3.48,1.06,1.06,2.38,2.16,3.43,3.07.73.63,1.49,1.18,2.28,1.4h61.88v-20.58h-61.16c-1.07,0-2.05.69-3,1.5-1.06.91-2.37,2.01-3.43,3.07,1.04-1.08,2.13-2.41,3.02-3.48.58-.7,1.13-1.42,1.38-2.17v-3.42c-.26-.75-.8-1.48-1.38-2.17-.89-1.07-1.98-2.4-3.02-3.48,1.06,1.06,2.38,2.16,3.43,3.07.95.81,1.93,1.5,3,1.5Z"/>
    <path d="M771.37,78.7v38.63c.02,1.01.36,2.1.74,3.17.62,1.76,1.37,3.94,2.18,5.78-.87-1.81-2.04-3.8-2.97-5.41-.48-.83-.99-1.63-1.58-2.26-12.59-12.63-27.97-25.92-42.93-39.91h-40.02v72.91h34.13v-38.47c.02-1.06-.34-2.22-.74-3.36-.62-1.76-1.37-3.94-2.18-5.78.87,1.81,2.04,3.8,2.97,5.41,1.07,1.87,1.61,2.32,1.61,2.32,0,0,0,0,0,0,10.71,10.91,26.76,24.77,42.9,39.87h40.02v-72.91h-34.13Z"/>
    <path d="M1093.01,78.7h-69.81v26.89h33.83c1.04,0,2.05-.72,3-1.49,1.09-.87,2.44-1.93,3.53-2.96-1.06,1.06-2.17,2.37-3.08,3.43-.81.94-1.57,1.93-1.59,2.99,0,.45-.01.86-.01.86v43.19s34.13,0,34.13,0c0,0,0-43.75-.01-44.05-.02-1.06-.78-2.05-1.59-2.99-.91-1.05-2.02-2.37-3.08-3.43,1.09,1.02,2.44,2.08,3.53,2.96.96.77,1.96,1.49,3,1.49h33.82v-26.89h-35.68Z"/>
    <path d="M1591.13,125.57c-1.06-.02-2.08.71-3.05,1.49-1.09.87-2.44,1.93-3.53,2.96,1.06-1.06,2.17-2.37,3.08-3.43.81-.94,1.56-1.91,1.59-2.96v-44.93h-34.13v72.91h82.01v-26.04h-45.97Z"/>
    <path d="M2046.86,109.41v17.79h31.87c.85-.04,1.76-.46,2.64-.91,1.24-.64,2.77-1.42,4.04-2.2-1.25.83-2.59,1.9-3.69,2.75-.98.76-2.09,1.71-2.09,1.71h0c-4.42,3.52-12.33,5.29-25.78,5.29-22.48,0-28.44-5.91-28.44-17.78s5.96-17.78,28.44-17.78c17.32,0,23.54,2.04,25.25,6.79h35.5c-2.28-20.37-19.68-28.44-62.26-28.44-45.3,0-62.62,10.65-62.62,38.52,0,23.58,13.44,38.52,64.12,38.52,15.39,0,26.15-1.91,32.38-6.5h0c.51-.44.95-1.04,1.37-1.64.8-1.14,1.79-2.54,2.56-3.83-.72,1.31-1.41,2.89-1.99,4.15-.37.82-.71,1.66-.76,2.44v3.31h26.89v-42.2h-67.43Z"/>
    <path d="M1386.88,78.7v38.63h0c.02,1.01.36,2.1.74,3.17.62,1.76,1.37,3.94,2.18,5.78-.87-1.81-2.04-3.8-2.97-5.41-.48-.83-.99-1.63-1.58-2.26-12.59-12.63-27.97-25.92-42.93-39.91h-40.02v72.91h34.13v-38.47h0c.02-1.06-.33-2.22-.74-3.36-.62-1.76-1.37-3.94-2.18-5.78.87,1.81,2.04,3.8,2.97,5.41.49.84,1,1.67,1.61,2.31h0s0,0,0,.01c10.71,10.91,26.76,24.77,42.9,39.87h40.02v-72.91h-34.13Z"/>
    <path d="M1510.69,78.7h-45.39l-42.77,72.91h38.72s5.39-10.55,5.39-10.55h42.76l5.39,10.55h38.68s-42.77-72.91-42.77-72.91ZM1499.75,121.19c-.87-.37-1.75-.71-2.57-.72h-18.3c-.84,0-1.74.34-2.63.72-1.28.55-2.86,1.21-4.19,1.91,1.3-.74,2.72-1.71,3.88-2.48.89-.59,1.75-1.23,2.17-2.05l8.99-17.61c.37-.72.49-1.64.58-2.57.13-1.39.3-3.1.33-4.59.02,1.5.2,3.21.33,4.59.09.93.21,1.86.58,2.58l9,17.61c.42.8,1.27,1.43,2.15,2.02,1.16.77,2.58,1.74,3.88,2.48-1.33-.69-2.91-1.36-4.19-1.91Z"/>
    <path d="M1957.29,78.7h-45.39l-42.77,72.91h38.72s5.39-10.55,5.39-10.55h42.76l5.39,10.55h38.68s-42.77-72.91-42.77-72.91ZM1946.35,121.19c-.87-.37-1.75-.71-2.57-.72h-18.3c-.84,0-1.74.34-2.63.72-1.28.55-2.86,1.21-4.19,1.91,1.3-.74,2.72-1.71,3.88-2.48.89-.59,1.75-1.23,2.17-2.05l8.99-17.61c.37-.72.49-1.64.58-2.57.13-1.39.3-3.1.33-4.59.02,1.5.2,3.21.33,4.59.09.93.21,1.86.58,2.58l9,17.61c.42.8,1.27,1.43,2.15,2.02,1.16.77,2.58,1.74,3.88,2.48-1.33-.69-2.91-1.36-4.19-1.91Z"/>
    <path d="M1001.88,78.7h-45.39l-42.77,72.91h38.72s5.39-10.55,5.39-10.55h42.76l5.39,10.55h38.68s-42.77-72.91-42.77-72.91ZM990.95,121.19c-.87-.37-1.75-.71-2.57-.72h-18.3c-.84,0-1.74.34-2.63.72-1.28.55-2.86,1.21-4.19,1.91,1.3-.74,2.72-1.71,3.88-2.48.89-.59,1.75-1.23,2.17-2.05l8.99-17.61c.37-.72.49-1.64.58-2.57.13-1.39.3-3.1.33-4.59.02,1.5.2,3.21.33,4.59.09.93.21,1.86.58,2.58l9,17.61c.42.8,1.27,1.43,2.15,2.02,1.16.77,2.58,1.74,3.88,2.48-1.33-.69-2.91-1.36-4.19-1.91Z"/>
    <path d="M1721.13,125.57c-1.06-.02-2.08.71-3.05,1.49-1.09.87-2.44,1.93-3.53,2.96,1.06-1.06,2.17-2.37,3.08-3.43.81-.94,1.56-1.91,1.59-2.96v-44.93h-34.13v72.91h82.01v-26.04h-45.97Z"/>
    <path d="M1867.75,78.7h-97.32v72.91h97.32v-20.58s-60.71,0-61.16,0c-1.07,0-2.05.69-3,1.5-1.06.91-2.37,2.01-3.43,3.07,1.04-1.08,2.13-2.41,3.02-3.48.58-.7,1.13-1.42,1.38-2.17v-3.42c-.26-.75-.8-1.48-1.38-2.17-.89-1.07-1.98-2.4-3.02-3.48,1.06,1.06,2.38,2.16,3.43,3.07.94.81,1.92,1.49,2.99,1.5h61.17v-20.58h-61.16c-1.07,0-2.05.69-3,1.5-1.06.91-2.37,2.01-3.43,3.07,1.04-1.08,2.13-2.41,3.02-3.48.58-.7,1.13-1.42,1.38-2.17v-3.42c-.26-.75-.8-1.48-1.38-2.17-.89-1.07-1.98-2.4-3.02-3.48,1.06,1.06,2.38,2.16,3.43,3.07.95.81,1.93,1.5,3,1.5h61.16v-20.58Z"/>
  </g>
  <g>
    <path d="M330.48,93.44c18.83.52,36.27.99,36.27.99,0,0-18.52.38-38.66.84-.78.6-1.52,1.17-2.21,1.69-13.85,10.55-14.55,11.18-4.12,11.5,5.03.15,18.94.54,33.84.94l44.57-30.85h-50.02c-7.48,5.52-14.36,10.81-19.67,14.88Z"/>
    <path d="M286.44,92.21c5.45.16,21.23.6,37.38,1.05,6.82-4.05,15.59-9.26,24.48-14.7h-56.16c-.83.62-1.62,1.21-2.35,1.75-14.16,10.57-13.79,11.58-3.36,11.9Z"/>
    <path d="M180.84,139.11c-5.47-.16-21.38-.61-37.61-1.05-6.3,3.74-14.26,8.47-22.44,13.45h56.02c.23-.17.45-.34.67-.5,14.16-10.57,13.79-11.58,3.36-11.9Z"/>
    <path d="M136.57,137.87c-18.74-.52-36.04-.99-36.04-.99,0,0,18.36-.38,38.41-.84.79-.6,1.53-1.17,2.22-1.7,13.85-10.55,14.55-11.18,4.12-11.5-4.55-.14-16.39-.47-29.64-.83l-42.6,29.48h45.53c6.83-5.07,13.08-9.87,17.99-13.64Z"/>
    <path d="M314.83,113.43c-10.18.47-15.64,1.36-28.47,8.89-13.11,7.69-22.55,13.41-22.55,13.41,0,0,7.65-5.72,17.52-13.41,9.66-7.53,6.87-8.42-1.91-8.89-12.92-.69-79.55-2.75-79.55-2.75,0,0,73.78-1.85,87.49-2.22,11.36-.31,12.57-.95,30.23-11.5.78-.47,1.63-.97,2.53-1.5-16.87.4-33.35.83-39.69,1.12-10.58.49-16.21,1.27-21.8,3.81-3.36,1.53-6.59,3.17-9.69,5.05,2.49-1.87,4.18-3.52,5.39-5.05,2.02-2.55-1.28-3.33-10.4-3.81-12.92-.69-79.91-2.15-79.91-2.15,0,0,73.24-1.85,86.95-2.22,11.36-.31,14.76-1.33,32.19-11.9.9-.54,1.86-1.13,2.89-1.75h-107.58l-58.42,40.43c14.13-.44,26.83-.86,32.17-1.11,10.18-.47,15.64-1.36,28.47-8.89,13.11-7.69,22.55-13.41,22.55-13.41,0,0-7.65,5.72-17.52,13.41-9.66,7.53-6.87,8.42,1.91,8.89,12.92.69,79.55,2.75,79.55,2.75,0,0-73.78,1.85-87.49,2.22-11.36.31-12.57.95-30.23,11.5-.79.47-1.64.98-2.54,1.51,16.96-.4,33.57-.83,39.95-1.13,10.58-.49,16.21-1.27,21.8-3.81,3.36-1.53,6.59-3.17,9.69-5.05-2.49,1.87-4.18,3.52-5.39,5.05-2.02,2.55,1.28,3.33,10.4,3.81,12.92.69,79.91,2.15,79.91,2.15,0,0-73.24,1.85-86.95,2.22-11.36.31-14.76,1.33-32.19,11.9-.27.16-.55.33-.83.5h111.45l56.82-39.32c-15.9.49-30.83.97-36.74,1.25Z"/>
  </g>
</svg>