<svg width="1420" height="288" viewBox="0 0 1420 288" fill="none" xmlns="http://www.w3.org/2000/svg">
<!-- Yellow highlight background for tagline only -->
<rect x="0" y="261" width="620" height="26" fill="#D4FF00"/>
<path d="M981.56 106.898C968.371 116.712 973.24 119.69 991.497 120.555C1018.35 121.829 1135.36 124.053 1135.36 124.053C1135.36 124.053 1011.1 126.996 982.938 127.693C959.589 128.275 952.718 128.685 921.237 148.307C918.942 149.737 916.351 151.356 913.529 153.12C948.218 152.69 981.986 152.159 994.948 151.623C1029.63 150.182 1041.06 142.993 1056.59 133.761H1056.6C1044.43 142.988 1034.28 150.182 1064.64 151.623C1091.48 152.896 1234.99 154.11 1235.15 154.111C1234.98 154.114 1084.06 156.043 1055.91 156.74C1032.57 157.322 1025.78 158.742 994.294 178.364C976.913 189.199 943.161 210.399 913.716 228.995C940.065 210.399 969.936 189.194 985.056 178.364C1012.45 158.742 1009.93 157.322 988.325 156.74C977.147 156.442 944.038 155.916 909.866 155.41C891.346 166.998 864.582 183.83 840.66 198.938C862.139 183.78 885.954 166.892 902.215 155.299C859.288 154.673 817.134 154.113 816.971 154.111C817.135 154.11 860.562 153.751 905.129 153.221C907.657 151.416 909.968 149.768 912.005 148.307C939.397 128.685 936.878 127.264 915.272 126.683C889.213 125.985 743.995 124.054 743.919 124.053C744.008 124.052 891.228 122.839 921.895 121.565C942.751 120.701 959.67 116.712 975.93 106.898L1022.49 77.7402L981.56 106.898ZM1257.16 0C1230.82 18.5956 1200.95 39.7999 1185.83 50.6299C1158.43 70.2521 1160.95 71.6734 1182.56 72.2549C1193.74 72.5532 1226.84 73.0784 1261.02 73.584C1279.54 61.9957 1306.3 45.1647 1330.22 30.0576C1308.74 45.2153 1284.93 62.102 1268.67 73.6953C1311.62 74.3214 1353.8 74.8823 1353.91 74.8838C1353.8 74.8847 1310.35 75.2433 1265.75 75.7734C1263.23 77.5784 1260.91 79.2273 1258.88 80.6885C1231.49 100.31 1234 101.731 1255.6 102.312C1281.67 103.01 1426.96 104.941 1426.96 104.941C1426.96 104.941 1279.66 106.155 1248.98 107.429C1228.13 108.293 1211.21 112.283 1194.95 122.097L1148.39 151.254L1189.32 122.097C1202.51 112.283 1197.64 109.305 1179.38 108.44C1152.54 107.167 1035.64 104.944 1035.52 104.941C1035.64 104.939 1159.79 101.998 1187.94 101.301C1211.29 100.719 1218.16 100.311 1249.64 80.6885C1251.94 79.2577 1254.53 77.6395 1257.35 75.875C1222.66 76.3048 1188.89 76.8352 1175.93 77.3711C1141.25 78.812 1129.82 86.0022 1114.28 95.2344C1126.45 86.0073 1136.6 78.8121 1106.24 77.3711C1079.42 76.0983 936.02 74.8862 935.729 74.8838C936.027 74.88 1086.84 72.9519 1114.97 72.2549C1138.32 71.6734 1145.11 70.252 1176.59 50.6299C1193.97 39.7999 1227.72 18.5956 1257.16 0Z" fill="#878787"/>
<path d="M8.67354 284.928V263.626H32.2722V266.134H11.7254V273.416H31.8492V275.924H11.7254V284.928H8.67354ZM30.3178 284.928L44.5496 263.626H48.0546L62.3166 284.928H58.6302L54.5813 278.734H38.0229L33.974 284.928H30.3178ZM46.3021 266.043L42.1927 272.388L39.6244 276.286H52.9798L50.4115 272.388L46.3021 266.043ZM77.853 285.381C66.8242 285.381 63.1378 283.296 62.8357 277.737H66.0688C66.3709 281.634 69.2717 282.904 77.853 282.904C86.5854 282.904 89.5768 282.058 89.5768 278.704C89.5768 276.256 88.2171 275.531 83.9868 275.44L71.8098 275.198C65.5853 275.078 63.44 273.627 63.44 269.669C63.44 264.955 67.2472 263.173 78.0645 263.173C88.7307 263.173 92.4171 265.257 92.7192 270.817H89.5163C89.2142 266.919 86.3135 265.65 78.0645 265.65C69.604 265.65 66.6429 266.496 66.6429 269.609C66.6429 271.784 68.0026 272.419 72.2328 272.509L84.4401 272.751C90.6948 272.902 92.7797 274.443 92.7797 278.643C92.7797 283.568 88.9725 285.381 77.853 285.381ZM107.174 284.928V266.255H93.8488V263.626H123.521V266.255H110.196V284.928H107.174ZM123.727 285.26C121.974 285.26 120.947 284.384 120.947 282.994C120.947 281.544 122.005 280.698 123.727 280.698C125.479 280.698 126.446 281.574 126.446 282.994C126.446 284.414 125.479 285.26 123.727 285.26ZM138.95 284.928V263.626H158.651C163.274 263.626 165.994 265.227 165.994 269.578C165.994 272.207 164.845 274.02 162.821 274.624C165.148 275.168 165.994 276.619 165.994 279.489V282.511V284.928H162.942V282.511V279.731C162.942 277.102 161.824 276.135 158.561 276.135H142.002V284.928H138.95ZM158.107 273.657C161.582 273.657 162.791 272.57 162.791 269.85C162.791 267.131 161.582 266.073 158.107 266.073H142.002V273.657H158.107ZM169.727 284.928V263.626H193.96V266.073H172.779V272.781H193.537V275.198H172.779V282.481H193.96V284.928H169.727ZM196.638 284.928V263.626H216.52C221.234 263.626 223.56 265.499 223.56 269.216C223.56 271.663 222.503 273.144 220.297 273.809C222.866 274.534 224.044 276.226 224.044 278.975C224.044 282.934 221.657 284.928 216.913 284.928H196.638ZM216.46 282.541C219.451 282.541 220.841 281.363 220.841 278.855C220.841 276.286 219.481 275.138 216.49 275.138H199.69V282.541H216.46ZM216.037 272.811C219.028 272.811 220.388 271.724 220.388 269.397C220.388 267.07 218.998 266.013 216.006 266.013H199.69V272.811H216.037ZM227.621 284.928V263.626H251.854V266.073H230.673V272.781H251.431V275.198H230.673V282.481H251.854V284.928H227.621ZM254.532 284.928V263.626H257.584V282.36H276.711V284.928H254.532ZM278.906 284.928V263.626H281.958V282.36H301.084V284.928H278.906ZM303.279 284.928V263.626H306.331V284.928H303.279ZM327.342 285.381C315.255 285.381 309.937 281.967 309.937 274.262C309.937 266.557 315.286 263.173 327.342 263.173C339.398 263.173 344.716 266.587 344.716 274.262C344.716 281.997 339.398 285.381 327.342 285.381ZM327.342 282.783C337.404 282.783 341.513 280.275 341.513 274.262C341.513 268.249 337.373 265.771 327.342 265.771C317.25 265.771 313.14 268.279 313.14 274.262C313.14 280.305 317.25 282.783 327.342 282.783ZM362.177 285.381C352.297 285.381 348.157 282.148 348.157 275.38V263.626H351.209V274.927C351.209 280.305 354.351 282.752 362.177 282.752C370.064 282.752 373.176 280.275 373.176 274.927V263.626H376.228V275.38C376.228 282.148 372.058 285.381 362.177 285.381ZM394.383 285.381C383.354 285.381 379.668 283.296 379.366 277.737H382.599C382.901 281.634 385.802 282.904 394.383 282.904C403.115 282.904 406.107 282.058 406.107 278.704C406.107 276.256 404.747 275.531 400.517 275.44L388.34 275.198C382.115 275.078 379.97 273.627 379.97 269.669C379.97 264.955 383.777 263.173 394.594 263.173C405.261 263.173 408.947 265.257 409.249 270.817H406.046C405.744 266.919 402.843 265.65 394.594 265.65C386.134 265.65 383.173 266.496 383.173 269.609C383.173 271.784 384.532 272.419 388.763 272.509L400.97 272.751C407.225 272.902 409.31 274.443 409.31 278.643C409.31 283.568 405.502 285.381 394.383 285.381ZM415.382 285.26C413.629 285.26 412.602 284.384 412.602 282.994C412.602 281.544 413.659 280.698 415.382 280.698C417.134 280.698 418.101 281.574 418.101 282.994C418.101 284.414 417.134 285.26 415.382 285.26ZM430.605 284.928V263.626H454.204V266.134H433.657V273.416H453.781V275.924H433.657V284.928H430.605ZM456.779 284.928V263.626H481.012V266.073H459.83V272.781H480.589V275.198H459.83V282.481H481.012V284.928H456.779ZM483.69 284.928V263.626H487.98L498.254 278.462L500.55 281.997C501.185 280.97 502.152 279.489 502.847 278.462L513.12 263.626H517.411V284.928H514.389V270.968V266.829C513.513 268.219 512.546 269.699 511.7 270.938L506.11 278.915L501.94 284.928H499.16L489.37 270.938C488.554 269.729 487.588 268.219 486.711 266.829V270.968V284.928H483.69ZM519.586 284.928L533.818 263.626H537.323L551.585 284.928H547.899L543.85 278.734H527.291L523.242 284.928H519.586ZM535.571 266.043L531.461 272.388L528.893 276.286H542.248L539.68 272.388L535.571 266.043ZM553.741 284.928V263.626H556.793V282.36H575.92V284.928H553.741ZM578.115 284.928V263.626H602.348V266.073H581.166V272.781H601.925V275.198H581.166V282.481H602.348V284.928H578.115ZM607.743 285.26C605.99 285.26 604.963 284.384 604.963 282.994C604.963 281.544 606.021 280.698 607.743 280.698C609.496 280.698 610.462 281.574 610.462 282.994C610.462 284.414 609.496 285.26 607.743 285.26Z" fill="#232324"/>
<path d="M523.709 188.897H498.325V243.881H523.709V188.897Z" fill="#232324"/>
<path d="M41.6144 201.664C52.691 201.664 57.7447 202.834 58.3062 206.5H83.6901C82.9286 192.719 71.4674 187.337 42.0759 187.337C15.2382 187.337 1.08473 191.603 1.08473 206.601C1.08473 221.778 14.1921 223.299 25.9994 223.759C37.8068 224.219 49.8603 224.399 52.9218 224.539C57.2293 224.734 58.3062 225.553 58.3062 227.425C58.3062 230.077 53.8448 231.059 42.922 231.059C31.6916 231.059 27.9224 229.609 27.3071 225.756H0.000142813C0.277058 240.083 11.9998 245.441 42.5374 245.441C72.2289 245.441 83.6901 239.904 83.6901 225.319C83.6901 214.166 77.1519 209.198 60.3062 208.66C57.7447 208.574 36.0761 207.81 32.5377 207.654C27.8378 207.451 26.4686 206.913 26.4686 205.01C26.4686 202.702 30.2301 201.656 41.6144 201.656V201.664Z" fill="#232324"/>
<path d="M315.662 208.66C313.1 208.574 291.432 207.81 287.893 207.654C283.193 207.451 281.824 206.913 281.824 205.01C281.824 202.702 285.586 201.656 296.97 201.656C308.047 201.656 313.1 202.826 313.662 206.492H339.046C338.277 192.719 326.815 187.337 297.432 187.337C270.594 187.337 256.44 191.603 256.44 206.601C256.44 221.778 269.548 223.299 281.355 223.759C293.162 224.219 305.216 224.399 308.277 224.539C312.585 224.734 313.662 225.553 313.662 227.425C313.662 230.077 309.2 231.059 298.278 231.059C287.047 231.059 283.278 229.609 282.663 225.756H255.356C255.633 240.083 267.355 245.441 297.893 245.441C327.585 245.441 339.046 239.904 339.046 225.319C339.046 214.166 332.507 209.198 315.662 208.66Z" fill="#232324"/>
<path d="M1297.76 215.102C1297.76 223.213 1292.91 226.333 1280.22 226.333C1267.53 226.333 1262.68 223.213 1262.68 215.102C1262.68 212.06 1262.68 188.897 1262.68 188.897H1237.3C1237.3 188.897 1237.3 203.099 1237.3 218.144C1237.3 237.876 1249.22 245.441 1280.22 245.441C1311.22 245.441 1323.14 237.876 1323.14 218.144C1323.14 214.494 1323.14 188.897 1323.14 188.897H1297.76C1297.76 188.897 1297.76 207.529 1297.76 215.102Z" fill="#232324"/>
<path d="M574.839 187.337C537.14 187.337 527.148 198.607 527.148 216.389C527.148 234.171 537.14 245.441 574.839 245.441C612.538 245.441 622.53 234.171 622.53 216.389C622.53 198.607 612.538 187.337 574.839 187.337ZM574.839 227.113C558.116 227.113 553.686 223.549 553.686 216.389C553.686 209.229 558.116 205.665 574.839 205.665C591.562 205.665 595.992 209.229 595.992 216.389C595.992 223.549 591.562 227.113 574.839 227.113Z" fill="#232324"/>
<path d="M159.365 188.897H112.366H105.213H86.9823V243.881H105.213H112.366H159.365V228.361H113.697H113.674C113.112 228.361 112.551 228.493 112.089 228.821C111.997 228.891 111.905 228.961 111.812 229.039C111.312 229.484 110.705 230.03 110.189 230.537C110.689 230.022 111.228 229.406 111.666 228.891C111.766 228.774 111.859 228.649 111.935 228.525C112.228 228.057 112.359 227.503 112.359 226.957V226.793V225.935V225.584C112.359 225.015 112.228 224.438 111.92 223.962C111.843 223.845 111.759 223.728 111.666 223.619C111.228 223.112 110.689 222.496 110.189 221.973C110.697 222.48 111.305 223.026 111.812 223.471C111.812 223.471 111.812 223.471 111.82 223.478C112.343 223.939 113.043 224.141 113.735 224.141H113.882H159.373V208.621H113.551C112.92 208.621 112.305 208.855 111.828 209.268H111.82C111.32 209.721 110.712 210.267 110.197 210.774C110.697 210.259 111.235 209.643 111.674 209.128C111.774 209.011 111.866 208.894 111.943 208.761C112.243 208.293 112.374 207.74 112.374 207.186V205.798C112.374 205.244 112.243 204.682 111.943 204.222C111.866 204.098 111.774 203.973 111.674 203.856C111.235 203.349 110.697 202.733 110.197 202.21C110.705 202.717 111.312 203.263 111.82 203.708C111.92 203.793 112.02 203.879 112.128 203.949C112.589 204.261 113.151 204.394 113.705 204.394H159.373V188.897H159.365Z" fill="#232324"/>
<path d="M494.902 209.175V188.897H468.365H442.981H416.443V209.175H441.404H441.435C442.265 209.175 443.065 208.871 443.688 208.317C444.188 207.872 444.796 207.326 445.311 206.819C444.981 207.163 444.634 207.545 444.311 207.911C443.458 208.878 442.988 210.142 442.988 211.444V243.889H468.372V211.437V211.444C468.372 210.142 467.903 208.886 467.049 207.911C466.726 207.545 466.38 207.163 466.049 206.819C466.557 207.326 467.165 207.872 467.672 208.317C468.303 208.871 469.095 209.175 469.926 209.175H469.957H494.925H494.902Z" fill="#232324"/>
<path d="M226.894 188.897V218.315C226.855 219.056 227.025 219.836 227.279 220.616C227.548 221.451 227.879 222.48 228.232 223.346C227.855 222.48 227.348 221.529 226.94 220.757C226.64 220.179 226.294 219.649 225.886 219.212C216.479 209.619 204.948 199.519 193.726 188.889H189.341H186.695H163.957V243.873H189.341V214.338V214.314C189.349 213.612 189.195 212.879 188.957 212.138C188.687 211.304 188.357 210.274 188.003 209.409C188.38 210.274 188.887 211.226 189.295 211.998C189.657 212.692 190.08 213.324 190.595 213.8C190.595 213.8 190.595 213.807 190.603 213.815C198.572 222.043 210.502 232.486 222.502 243.873H226.886H228.148H252.27V188.889H226.886L226.894 188.897Z" fill="#232324"/>
<path d="M399.859 188.897H390.767H375.183H366.091L334.277 243.881H363.076L367.083 235.926H398.89L402.898 243.881H431.666L399.859 188.897ZM391.813 220.874H391.798C391.106 220.562 390.367 220.406 389.614 220.406H376.352C375.599 220.406 374.852 220.562 374.168 220.866H374.152C373.36 221.224 372.376 221.646 371.56 222.09C372.376 221.63 373.26 221.03 373.983 220.546L374.029 220.515C374.837 219.977 375.491 219.236 375.929 218.362L382.244 205.821C382.552 205.213 382.737 204.542 382.798 203.864C382.868 202.99 382.968 201.914 382.983 200.97C382.991 201.914 383.091 202.99 383.168 203.864C383.221 204.534 383.406 205.182 383.706 205.774L390.052 218.362C390.49 219.236 391.144 219.977 391.952 220.515L391.998 220.546C392.721 221.03 393.606 221.63 394.421 222.09C393.598 221.646 392.621 221.224 391.829 220.874H391.813Z" fill="#232324"/>
<path d="M689.019 188.897V218.315C688.981 219.056 689.15 219.836 689.404 220.616C689.673 221.451 690.004 222.48 690.358 223.346C689.981 222.48 689.473 221.529 689.065 220.757C688.765 220.179 688.419 219.649 688.012 219.212C678.604 209.619 667.074 199.519 655.851 188.889H651.466H648.82H626.082V243.873H651.466V214.338V214.314C651.474 213.612 651.32 212.879 651.082 212.138C650.813 211.304 650.482 210.274 650.128 209.409C650.505 210.274 651.013 211.226 651.42 211.998C651.782 212.692 652.205 213.324 652.72 213.8C652.72 213.8 652.72 213.807 652.728 213.815C660.697 222.043 672.627 232.486 684.627 243.873H689.012H690.273H714.395V188.889H689.012L689.019 188.897Z" fill="#232324"/>
<path d="M781.732 188.897H772.64H757.056H747.964L716.149 243.881H744.948L748.956 235.926H780.763L784.77 243.881H813.539L781.732 188.897ZM773.686 220.874H773.671C772.978 220.562 772.24 220.406 771.486 220.406H758.225C757.471 220.406 756.725 220.562 756.04 220.866H756.025C755.233 221.224 754.248 221.646 753.433 222.09C754.248 221.63 755.133 221.03 755.856 220.546L755.902 220.515C756.71 219.977 757.363 219.236 757.802 218.362L764.033 205.985C764.363 205.33 764.602 204.636 764.663 203.903C764.663 203.887 764.663 203.879 764.663 203.864C764.733 202.99 764.833 201.914 764.848 200.97C764.856 201.914 764.956 202.99 765.033 203.864C765.033 203.864 765.033 203.871 765.033 203.879C765.094 204.612 765.333 205.314 765.663 205.969L771.886 218.323C772.34 219.228 773.017 219.992 773.855 220.554C774.578 221.037 775.463 221.638 776.278 222.098C775.455 221.653 774.478 221.232 773.686 220.881V220.874Z" fill="#232324"/>
<path d="M842.269 224.243C841.462 224.258 840.685 224.555 840.077 225.093C839.577 225.537 838.969 226.083 838.454 226.59C838.954 226.076 839.492 225.459 839.931 224.945C840.477 224.305 840.777 223.502 840.777 222.66V221.965V188.889H815.393V224.235V243.873H840.777H876.391V224.235H842.269V224.243Z" fill="#232324"/>
<path d="M939.812 224.243C939.004 224.258 938.227 224.555 937.619 225.093C937.119 225.537 936.512 226.083 935.996 226.59C936.496 226.076 937.035 225.459 937.473 224.945C938.019 224.305 938.319 223.502 938.319 222.66V221.965V188.889H912.935V224.235V243.873H938.319H973.934V224.235H939.812V224.243Z" fill="#232324"/>
<path d="M1049.6 188.897H1002.6H995.449H977.219V243.881H995.449H1002.6H1049.6V228.361H1003.93H1003.91C1003.35 228.361 1002.79 228.493 1002.33 228.821C1002.23 228.891 1002.14 228.961 1002.05 229.039C1001.55 229.484 1000.94 230.03 1000.43 230.537C1000.93 230.022 1001.46 229.406 1001.9 228.891C1002 228.774 1002.09 228.649 1002.17 228.525C1002.46 228.057 1002.59 227.503 1002.59 226.957V226.793V225.935V225.584C1002.59 225.015 1002.46 224.438 1002.16 223.962C1002.08 223.845 1001.99 223.728 1001.9 223.619C1001.46 223.112 1000.93 222.496 1000.43 221.973C1000.93 222.48 1001.54 223.026 1002.05 223.471C1002.05 223.471 1002.05 223.471 1002.06 223.478C1002.58 223.939 1003.28 224.141 1003.97 224.141H1004.12H1049.61V208.621H1003.79C1003.16 208.621 1002.54 208.855 1002.06 209.268H1002.06C1001.56 209.721 1000.95 210.267 1000.43 210.774C1000.93 210.259 1001.47 209.643 1001.91 209.128C1002.01 209.011 1002.1 208.894 1002.18 208.761C1002.48 208.293 1002.61 207.74 1002.61 207.186V205.798C1002.61 205.244 1002.48 204.682 1002.18 204.222C1002.1 204.098 1002.01 203.973 1001.91 203.856C1001.47 203.349 1000.93 202.733 1000.43 202.21C1000.94 202.717 1001.55 203.263 1002.06 203.708C1002.16 203.793 1002.26 203.879 1002.36 203.949C1002.83 204.261 1003.39 204.394 1003.94 204.394H1049.61V188.897H1049.6Z" fill="#232324"/>
<path d="M1116.55 188.897H1107.46H1091.88H1082.79L1050.97 243.881H1079.77L1083.78 235.926H1115.59L1119.59 243.881H1148.36L1116.55 188.897H1116.55ZM1108.51 220.874H1108.49C1107.8 220.562 1107.06 220.406 1106.31 220.406H1093.05C1092.29 220.406 1091.55 220.562 1090.86 220.866H1090.85C1090.06 221.224 1089.07 221.646 1088.26 222.09C1089.07 221.63 1089.96 221.03 1090.68 220.546L1090.72 220.515C1091.53 219.977 1092.19 219.236 1092.62 218.362L1098.86 205.985C1099.19 205.33 1099.42 204.636 1099.49 203.903C1099.49 203.887 1099.49 203.879 1099.49 203.864C1099.56 202.99 1099.66 201.914 1099.67 200.97C1099.68 201.914 1099.78 202.99 1099.86 203.864C1099.86 203.864 1099.86 203.871 1099.86 203.879C1099.92 204.612 1100.16 205.314 1100.49 205.969L1106.71 218.323C1107.16 219.228 1107.84 219.992 1108.68 220.554C1109.4 221.037 1110.29 221.638 1111.1 222.098C1110.28 221.653 1109.3 221.232 1108.51 220.881V220.874Z" fill="#232324"/>
<path d="M1183.87 212.06V225.475H1208.39C1208.75 225.475 1209.12 225.413 1209.47 225.296C1210.1 225.077 1210.87 224.804 1211.53 224.531C1210.88 224.82 1210.14 225.179 1209.54 225.483C1209.25 225.631 1208.98 225.818 1208.75 226.044C1205.58 229 1199.61 230.482 1189.07 230.482C1172.35 230.482 1167.92 226.029 1167.92 217.075C1167.92 208.122 1172.35 203.669 1189.07 203.669C1201.95 203.669 1206.58 205.205 1207.85 208.793H1234.26C1232.56 193.421 1219.62 187.337 1187.95 187.337C1154.25 187.337 1141.37 195.37 1141.37 216.389C1141.37 234.171 1151.36 245.441 1189.06 245.441C1200.71 245.441 1208.78 243.943 1213.38 240.356C1213.62 240.106 1213.83 239.826 1213.99 239.506C1214.3 238.905 1214.67 238.172 1214.95 237.509C1214.68 238.172 1214.39 238.952 1214.18 239.584C1214.1 239.802 1214.05 240.028 1214.02 240.254V243.873H1234.02V225.467V212.053H1214.02H1183.87V212.06Z" fill="#232324"/>
<path d="M1399.14 188.897H1352.14H1344.99H1326.76V243.881H1344.99H1352.14H1399.14V228.361H1353.47H1353.45C1352.89 228.361 1352.32 228.493 1351.86 228.821C1351.77 228.891 1351.68 228.961 1351.59 229.039C1351.09 229.484 1350.48 230.03 1349.96 230.537C1350.46 230.022 1351 229.406 1351.44 228.891C1351.54 228.774 1351.63 228.649 1351.71 228.525C1352 228.057 1352.13 227.503 1352.13 226.957V226.793V225.935V225.584C1352.13 225.015 1352 224.438 1351.69 223.962C1351.62 223.845 1351.53 223.728 1351.44 223.619C1351 223.112 1350.46 222.496 1349.96 221.973C1350.47 222.48 1351.08 223.026 1351.59 223.471C1351.59 223.471 1351.59 223.471 1351.59 223.478C1352.12 223.939 1352.82 224.141 1353.51 224.141H1353.66H1399.15V208.621H1353.32C1352.69 208.621 1352.08 208.855 1351.6 209.268H1351.59C1351.09 209.721 1350.49 210.267 1349.97 210.774C1350.47 210.259 1351.01 209.643 1351.45 209.128C1351.55 209.011 1351.64 208.894 1351.72 208.761C1352.02 208.293 1352.15 207.74 1352.15 207.186V205.798C1352.15 205.244 1352.02 204.682 1351.72 204.222C1351.64 204.098 1351.55 203.973 1351.45 203.856C1351.01 203.349 1350.47 202.733 1349.97 202.21C1350.48 202.717 1351.09 203.263 1351.59 203.708C1351.69 203.793 1351.79 203.879 1351.9 203.949C1352.36 204.261 1352.92 204.394 1353.48 204.394H1399.15V188.897H1399.14Z" fill="#232324"/>
</svg>
