<?xml version="1.0" encoding="UTF-8"?>
<svg id="Layer_1" data-name="Layer 1" xmlns="http://www.w3.org/2000/svg" viewBox="200 200 1450 650">
  <path d="M980.31,570.05c-35.63,21.22-61.85,37.75-141.39,41.06-29.72,1.24-107.18,2.45-186.73,3.44,6.47-4.05,12.41-7.77,17.68-11.06,72.21-45.1,87.97-46.05,141.51-47.38,64.59-1.61,349.58-8.36,349.58-8.36,0,0-268.36-5.11-329.94-8.04-41.87-1.99-53.04-8.83-22.79-31.39l93.86-67.02-106.78,67.02c-37.29,22.56-76.09,31.72-123.93,33.71-70.36,2.93-408.19,5.72-408.19,5.72,0,0,333.22,4.44,393.01,6.04,49.56,1.33,55.32,4.6-7.5,49.7-4.67,3.35-9.97,7.15-15.77,11.3-102.4,1.22-202.19,2.04-202.19,2.04,0,0,96.86,1.29,195.51,2.73-37.3,26.65-91.91,65.46-141.18,100.3,54.87-34.73,116.25-73.41,158.73-100.05,78.37,1.16,154.31,2.37,179.95,3.05,49.56,1.33,55.32,4.6-7.5,49.7-34.68,24.9-103.18,73.63-163.62,116.38,67.54-42.74,144.94-91.48,184.81-116.38,72.21-45.1,87.77-48.37,141.32-49.7,64.59-1.61,411.1-6.04,411.1-6.04,0,0-329.49-2.79-391.08-5.72-69.63-3.31-46.34-19.84-18.45-41.06Z"/>
  <path d="M1436.75,497.75c-49.56-1.33-55.32-4.6,7.5-49.7,4.67-3.35,9.97-7.15,15.77-11.3,102.4-1.22,202.19-2.04,202.19-2.04,0,0-96.86-1.29-195.51-2.73,37.3-26.65,91.91-65.46,141.18-100.3-54.87,34.73-116.25,73.41-158.73,100.05-78.37-1.16-154.31-2.37-179.95-3.05-49.56-1.33-55.32-4.6,7.5-49.7,34.68-24.9,103.18-73.63,163.62-116.38-67.54,42.74-144.94,91.48-184.81,116.38-72.21,45.1-87.77,48.37-141.32,49.7-64.59,1.61-411.1,6.04-411.1,6.04,0,0,329.49,2.79,391.08,5.72,69.63,3.31,46.34,19.84,18.45,41.06,35.63-21.22,61.85-37.75,141.39-41.06,29.72-1.24,107.18-2.45,186.73-3.44-6.47,4.05-12.41,7.77-17.68,11.06-72.21,45.1-87.97,46.05-141.51,47.38-64.59,1.61-349.58,8.36-349.58,8.36,0,0,268.36,5.11,329.94,8.04,41.87,1.99,53.04,8.83,22.79,31.39l-93.86,67.02,106.78-67.02c37.29-22.56,76.09-31.72,123.93-33.71,70.36-2.93,408.19-5.72,408.19-5.72,0,0-333.22-4.44-393.01-6.04Z"/>
</svg>
