<?xml version="1.0" encoding="UTF-8"?>
<svg id="Layer_1" data-name="Layer 1" xmlns="http://www.w3.org/2000/svg" viewBox="50 50 450 200">
  <path d="M164.04,219.07c18.67-11.9,39.18-24.31,50.56-31.21,20.61-12.5,24.63-13.7,38.08-14.07,16.22-.45,102.85-2.63,102.85-2.63,0,0-79.24-1.72-94.52-2.54-10.79-.58-14.7-1.5-12.3-4.51,1.44-1.81,3.43-3.75,6.38-5.97-3.67,2.22-7.49,4.16-11.46,5.97-6.62,3.02-13.27,3.94-25.79,4.51-17.71.82-102.11,2.54-102.11,2.54,0,0,80.11,2.18,94.99,2.63,12.34.37,12.77,1.57-3.98,14.07-9.25,6.9-25.8,19.31-42.7,31.21Z"/>
  <path d="M121.34,199.84c18.67-11.9,40.71-24.8,52.24-31.69,20.89-12.47,22.32-13.23,35.76-13.6,16.22-.45,103.49-2.63,103.49-2.63,0,0-78.82-2.44-94.1-3.25-10.39-.55-13.69-1.61-2.26-10.51,11.68-9.1,20.73-15.87,20.73-15.87,0,0-11.17,6.77-26.68,15.87-15.18,8.91-21.64,9.96-33.68,10.51-17.71.82-103.82,3.25-103.82,3.25,0,0,80.75,2.18,95.63,2.63,12.34.37,11.51,1.12-4.87,13.6-9.05,6.89-25.55,19.79-42.44,31.69Z"/>
  <path d="M382.29,73.02c-18.67,11.9-39.18,24.31-50.56,31.21-20.61,12.5-24.63,13.7-38.08,14.07-16.22.45-102.85,2.63-102.85,2.63,0,0,79.24,1.72,94.52,2.54,10.79.58,14.7,1.5,12.3,4.51-1.44,1.81-3.43,3.75-6.38,5.97,3.67-2.22,7.49-4.16,11.46-5.97,6.62-3.02,13.27-3.94,25.79-4.51,17.71-.82,102.11-2.54,102.11-2.54,0,0-80.11-2.18-94.99-2.63-12.34-.37-12.77-1.57,3.98-14.07,9.25-6.9,25.8-19.31,42.7-31.21Z"/>
  <path d="M424.7,92.25c-18.67,11.9-40.71,24.8-52.24,31.69-20.89,12.47-22.32,13.23-35.76,13.6-16.22.45-103.49,2.63-103.49,2.63,0,0,78.82,2.44,94.1,3.25,10.39.55,13.69,1.61,2.26,10.51-11.68,9.1-20.73,15.87-20.73,15.87,0,0,11.17-6.77,26.68-15.87,15.18-8.91,21.64-9.96,33.68-10.51,17.71-.82,103.82-3.25,103.82-3.25,0,0-80.75-2.18-95.63-2.63-12.34-.37-11.51-1.12,4.87-13.6,9.05-6.89,25.55-19.79,42.44-31.69Z"/>
</svg>