<?xml version="1.0" encoding="UTF-8"?>
<svg id="Layer_1" data-name="Layer 1" xmlns="http://www.w3.org/2000/svg" viewBox="0 0 328.54 152.41">
  <path d="M229.76,61.08c13.09.36,25.22.69,25.22.69,0,0-12.88.26-26.89.58-.55.42-1.06.81-1.54,1.18-9.63,7.33-10.12,7.78-2.87,8,3.5.11,13.17.37,23.54.66l31-21.45h-34.79c-5.2,3.84-9.99,7.52-13.68,10.35Z"/>
  <path d="M199.14,60.23c3.79.11,14.77.42,26,.73,4.74-2.82,10.85-6.44,17.03-10.22h-39.05c-.58.43-1.12.84-1.63,1.22-9.85,7.35-9.59,8.06-2.34,8.27Z"/>
  <path d="M125.7,92.84c-3.81-.11-14.87-.42-26.16-.73-4.38,2.6-9.92,5.89-15.61,9.36h38.96c.16-.12.31-.23.47-.35,9.85-7.35,9.59-8.06,2.34-8.27Z"/>
  <path d="M94.91,91.98c-13.03-.36-25.06-.69-25.06-.69,0,0,12.77-.26,26.71-.58.55-.42,1.06-.81,1.54-1.18,9.63-7.33,10.12-7.78,2.87-8-3.16-.1-11.4-.32-20.62-.58l-29.63,20.5h31.67c4.75-3.53,9.1-6.86,12.51-9.48Z"/>
  <path d="M218.88,74.99c-7.08.33-10.88.95-19.8,6.18-9.12,5.35-15.69,9.33-15.69,9.33,0,0,5.32-3.98,12.19-9.33,6.72-5.24,4.78-5.86-1.33-6.18-8.98-.48-55.32-1.91-55.32-1.91,0,0,51.31-1.28,60.85-1.55,7.9-.22,8.74-.66,21.03-8,.55-.33,1.13-.68,1.76-1.05-11.74.28-23.19.58-27.61.78-7.36.34-11.27.88-15.16,2.65-2.33,1.06-4.58,2.21-6.74,3.51,1.73-1.3,2.9-2.45,3.75-3.51,1.41-1.77-.89-2.31-7.23-2.65-8.98-.48-55.57-1.49-55.57-1.49,0,0,50.94-1.28,60.47-1.55,7.9-.22,10.27-.92,22.39-8.27.62-.38,1.3-.79,2.01-1.22h-74.82l-40.63,28.12c9.83-.31,18.66-.6,22.37-.77,7.08-.33,10.88-.95,19.8-6.18,9.12-5.35,15.69-9.33,15.69-9.33,0,0-5.32,3.98-12.19,9.33-6.72,5.24-4.78,5.86,1.33,6.18,8.98.48,55.32,1.91,55.32,1.91,0,0-51.31,1.28-60.85,1.55-7.9.22-8.75.66-21.03,8-.55.33-1.14.68-1.76,1.05,11.8-.28,23.34-.58,27.78-.78,7.36-.34,11.27-.88,15.16-2.65,2.33-1.06,4.58-2.21,6.74-3.51-1.73,1.3-2.9,2.45-3.75,3.51-1.41,1.77.89,2.31,7.23,2.65,8.98.48,55.57,1.49,55.57,1.49,0,0-50.93,1.28-60.47,1.55-7.9.22-10.27.92-22.39,8.27-.19.11-.38.23-.57.35h77.51l39.51-27.35c-11.06.34-21.44.68-25.55.87Z"/>
</svg>