<?xml version="1.0" encoding="UTF-8"?>
<svg id="Layer_1" data-name="Layer 1" xmlns="http://www.w3.org/2000/svg" viewBox="0 0 1210.83 194.91">
  <g>
    <path d="M235.19,20.47h-97.32v72.91h97.32v-20.58s-60.71,0-61.16,0c-1.07,0-2.05.69-3,1.5-1.06.91-2.37,2.01-3.43,3.07,1.04-1.08,2.13-2.41,3.02-3.48.58-.7,1.13-1.42,1.38-2.17v-3.42c-.26-.75-.8-1.48-1.38-2.17-.89-1.07-1.98-2.4-3.02-3.48,1.06,1.06,2.38,2.16,3.43,3.07.94.81,1.92,1.49,2.99,1.5h61.17v-20.58h-61.16c-1.07,0-2.05.69-3,1.5-1.06.91-2.37,2.01-3.43,3.07,1.04-1.08,2.13-2.41,3.02-3.48.58-.7,1.13-1.42,1.38-2.17v-3.42c-.26-.75-.8-1.48-1.38-2.17-.89-1.07-1.98-2.4-3.02-3.48,1.06,1.06,2.38,2.16,3.43,3.07.95.81,1.93,1.5,3,1.5h61.16v-20.58Z"/>
    <rect x="685.71" y="20.47" width="34.13" height="72.91"/>
    <path d="M76.44,37.39c14.9,0,21.68,1.55,22.44,6.41h34.13c-1.03-18.27-16.44-25.4-55.95-25.4-36.08,0-55.11,5.66-55.11,25.55s17.62,22.15,33.5,22.75c15.87.61,32.07.85,36.2,1.03,5.79.25,7.24,1.35,7.24,3.83,0,3.51-6,4.82-20.68,4.82s-20.17-1.93-20.99-7.03H20.49c.37,19,16.13,26.1,57.19,26.1s55.33-7.34,55.33-26.68c0-14.79-8.79-21.37-31.44-22.09-3.45-.11-32.57-1.13-37.33-1.33-6.31-.27-8.16-.98-8.16-3.5,0-3.07,5.05-4.45,20.36-4.45Z"/>
    <path d="M443.34,46.67c-3.45-.11-32.57-1.13-37.33-1.33-6.31-.27-8.16-.98-8.16-3.5,0-3.07,5.05-4.45,20.36-4.45s21.68,1.55,22.44,6.41h34.13c-1.03-18.27-16.44-25.4-55.95-25.4-36.08,0-55.11,5.66-55.11,25.55s17.62,22.15,33.5,22.75c15.87.61,32.07.85,36.2,1.03,5.79.25,7.24,1.35,7.24,3.83,0,3.51-6,4.82-20.68,4.82s-20.17-1.93-20.99-7.03h-36.71c.37,19,16.13,26.1,57.19,26.1s55.33-7.34,55.33-26.68c0-14.79-8.79-21.37-31.44-22.09Z"/>
    <path d="M788.17,18.4c-50.68,0-64.12,14.95-64.12,38.52s13.44,38.52,64.12,38.52,64.12-14.95,64.12-38.52-13.44-38.52-64.12-38.52ZM788.17,71.15c-22.48,0-28.44-4.72-28.44-14.22s5.96-14.22,28.44-14.22,28.44,4.72,28.44,14.22-5.96,14.22-28.44,14.22Z"/>
    <path d="M324.62,20.47v38.63c.02,1.01.36,2.1.74,3.17.62,1.76,1.37,3.94,2.18,5.78-.87-1.81-2.04-3.8-2.97-5.41-.48-.83-.99-1.63-1.58-2.26-12.59-12.63-27.97-25.92-42.93-39.91h-40.02v72.91h34.13v-38.47c.02-1.06-.34-2.22-.74-3.36-.62-1.76-1.37-3.94-2.18-5.78.87,1.81,2.04,3.8,2.97,5.41,1.07,1.87,1.61,2.32,1.61,2.32,0,0,0,0,0,0,10.71,10.91,26.76,24.77,42.9,39.87h40.02V20.47h-34.13Z"/>
    <path d="M646.26,20.47h-69.81v26.89h33.83c1.04,0,2.05-.72,3-1.49,1.09-.87,2.44-1.93,3.53-2.96-1.06,1.06-2.17,2.37-3.08,3.43-.81.94-1.57,1.93-1.59,2.99,0,.45-.01.86-.01.86v43.19s34.13,0,34.13,0c0,0,0-43.75-.01-44.05-.02-1.06-.78-2.05-1.59-2.99-.91-1.05-2.02-2.37-3.08-3.43,1.09,1.02,2.44,2.08,3.53,2.96.96.77,1.96,1.49,3,1.49h33.82v-26.89h-35.68Z"/>
    <path d="M1144.38,67.34c-1.06-.02-2.08.71-3.05,1.49-1.09.87-2.44,1.93-3.53,2.96,1.06-1.06,2.17-2.37,3.08-3.43.81-.94,1.56-1.91,1.59-2.96V20.47h-34.13v72.91h82.01v-26.04h-45.97Z"/>
    <path d="M940.14,20.47v38.63h0c.02,1.01.36,2.1.74,3.17.62,1.76,1.37,3.94,2.18,5.78-.87-1.81-2.04-3.8-2.97-5.41-.48-.83-.99-1.63-1.58-2.26-12.59-12.63-27.97-25.92-42.93-39.91h-40.02v72.91h34.13v-38.47h0c.02-1.06-.33-2.22-.74-3.36-.62-1.76-1.37-3.94-2.18-5.78.87,1.81,2.04,3.8,2.97,5.41.49.84,1,1.67,1.61,2.31h0s0,0,0,.01c10.71,10.91,26.76,24.77,42.9,39.87h40.02V20.47h-34.13Z"/>
    <path d="M1063.94,20.47h-45.39l-42.77,72.91h38.72s5.39-10.55,5.39-10.55h42.76l5.39,10.55h38.68s-42.77-72.91-42.77-72.91ZM1053.01,62.97c-.87-.37-1.75-.71-2.57-.72h-18.3c-.84,0-1.74.34-2.63.72-1.28.55-2.86,1.21-4.19,1.91,1.3-.74,2.72-1.71,3.88-2.48.89-.59,1.75-1.23,2.17-2.05l8.99-17.61c.37-.72.49-1.64.58-2.57.13-1.39.3-3.1.33-4.59.02,1.5.2,3.21.33,4.59.09.93.21,1.86.58,2.58l9,17.61c.42.8,1.27,1.43,2.15,2.02,1.16.77,2.58,1.74,3.88,2.48-1.33-.69-2.91-1.36-4.19-1.91Z"/>
    <path d="M555.13,20.47h-45.39l-42.77,72.91h38.72s5.39-10.55,5.39-10.55h42.76l5.39,10.55h38.68s-42.77-72.91-42.77-72.91ZM544.2,62.97c-.87-.37-1.75-.71-2.57-.72h-18.3c-.84,0-1.74.34-2.63.72-1.28.55-2.86,1.21-4.19,1.91,1.3-.74,2.72-1.71,3.88-2.48.89-.59,1.75-1.23,2.17-2.05l8.99-17.61c.37-.72.49-1.64.58-2.57.13-1.39.3-3.1.33-4.59.02,1.5.2,3.21.33,4.59.09.93.21,1.86.58,2.58l9,17.61c.42.8,1.27,1.43,2.15,2.02,1.16.77,2.58,1.74,3.88,2.48-1.33-.69-2.91-1.36-4.19-1.91Z"/>
  </g>
  <g>
    <path d="M794.78,136.28c0,10.76-6.51,14.89-23.58,14.89s-23.58-4.14-23.58-14.89v-34.75h-34.13v38.78c0,26.17,16.03,36.2,57.71,36.2s57.71-10.03,57.71-36.2v-38.78h-34.13v34.75Z"/>
    <path d="M868.77,122.12h61.16v-20.58h-97.32v72.91h97.32v-20.58h-61.86c-.8.22-1.56.77-2.3,1.4-1.06.91-2.37,2.01-3.43,3.07,1.04-1.08,2.13-2.41,3.02-3.48.58-.7,1.13-1.42,1.38-2.17v-3.22c-.26-.75-.8-1.48-1.38-2.17-.89-1.07-1.98-2.4-3.02-3.48,1.06,1.06,2.38,2.16,3.43,3.07.73.63,1.49,1.18,2.28,1.4h61.88v-20.58h-61.16c-1.07,0-2.05.69-3,1.5-1.06.91-2.37,2.01-3.43,3.07,1.04-1.08,2.13-2.41,3.02-3.48.58-.7,1.13-1.42,1.38-2.17v-3.42c-.26-.75-.8-1.48-1.38-2.17-.89-1.07-1.98-2.4-3.02-3.48,1.06,1.06,2.38,2.16,3.43,3.07.95.81,1.93,1.5,3,1.5Z"/>
    <path d="M642.69,132.25v17.79h31.87c.85-.04,1.76-.46,2.64-.91,1.24-.64,2.77-1.42,4.04-2.2-1.25.83-2.59,1.9-3.69,2.75-.98.76-2.09,1.71-2.09,1.71h0c-4.42,3.52-12.33,5.29-25.78,5.29-22.48,0-28.44-5.91-28.44-17.78s5.96-17.78,28.44-17.78c17.32,0,23.54,2.04,25.25,6.79h35.5c-2.28-20.37-19.68-28.44-62.26-28.44-45.3,0-62.62,10.65-62.62,38.52,0,23.58,13.44,38.52,64.12,38.52,15.39,0,26.15-1.91,32.38-6.5h0c.51-.44.95-1.04,1.37-1.64.8-1.14,1.79-2.54,2.56-3.83-.72,1.31-1.41,2.89-1.99,4.15-.37.82-.71,1.66-.76,2.44v3.31h26.89v-42.2h-67.43Z"/>
    <path d="M553.11,101.53h-45.39l-42.77,72.91h38.72s5.39-10.55,5.39-10.55h42.76l5.39,10.55h38.68s-42.77-72.91-42.77-72.91ZM542.17,144.03c-.87-.37-1.75-.71-2.57-.72h-18.3c-.84,0-1.74.34-2.63.72-1.28.55-2.86,1.21-4.19,1.91,1.3-.74,2.72-1.71,3.88-2.48.89-.59,1.75-1.23,2.17-2.05l8.99-17.61c.37-.72.49-1.64.58-2.57.13-1.39.3-3.1.33-4.59.02,1.5.2,3.21.33,4.59.09.93.21,1.86.58,2.58l9,17.61c.42.8,1.27,1.43,2.15,2.02,1.16.77,2.58,1.74,3.88,2.48-1.33-.69-2.91-1.36-4.19-1.91Z"/>
    <path d="M316.95,148.41c-1.06-.02-2.08.71-3.05,1.49-1.09.87-2.44,1.93-3.53,2.96,1.06-1.06,2.17-2.37,3.08-3.43.81-.94,1.56-1.91,1.59-2.96v-44.93h-34.13v72.91h82.01v-26.04h-45.97Z"/>
    <path d="M463.57,101.53h-97.32v72.91h97.32v-20.58s-60.71,0-61.16,0c-1.07,0-2.05.69-3,1.5-1.06.91-2.37,2.01-3.43,3.07,1.04-1.08,2.13-2.41,3.02-3.48.58-.7,1.13-1.42,1.38-2.17v-3.42c-.26-.75-.8-1.48-1.38-2.17-.89-1.07-1.98-2.4-3.02-3.48,1.06,1.06,2.38,2.16,3.43,3.07.94.81,1.92,1.49,2.99,1.5h61.17v-20.58h-61.16c-1.07,0-2.05.69-3,1.5-1.06.91-2.37,2.01-3.43,3.07,1.04-1.08,2.13-2.41,3.02-3.48.58-.7,1.13-1.42,1.38-2.17v-3.42c-.26-.75-.8-1.48-1.38-2.17-.89-1.07-1.98-2.4-3.02-3.48,1.06,1.06,2.38,2.16,3.43,3.07.95.81,1.93,1.5,3,1.5h61.16v-20.58Z"/>
  </g>
</svg>