<svg xmlns="http://www.w3.org/2000/svg" version="1.1" xmlns:xlink="http://www.w3.org/1999/xlink" width="1000" height="1000"><g clip-path="url(#SvgjsClipPath1263)"><rect width="1000" height="1000" fill="#000000"></rect><g transform="matrix(6.451612903225806,0,0,6.451612903225806,5.684341886080802e-14,290.32258064516134)"><svg xmlns="http://www.w3.org/2000/svg" version="1.1" xmlns:xlink="http://www.w3.org/1999/xlink" width="155" height="65"><svg id="Layer_1" data-name="Layer 1" xmlns="http://www.w3.org/2000/svg" viewBox="25 25 155 65">
  <path fill="#D4FF00" d="M45.83,75.61c7.07-4.5,13.87-8.51,18.36-11.1,6.4-3.68,8.82-5.38,14.1-5.64,6.32-.31,39.9-1.4,39.9-1.4,0,0-30.76-1.01-36.53-1.32-3.92-.21-2.99-1.28,1.17-4.63,4.26-3.43,6.86-5.27,6.86-5.27,0,0-2.89,1.84-8.88,5.27-5.86,3.35-8.13,4.42-12.68,4.63-6.69.31-40.47,1.32-40.47,1.32,0,0,30.33,1.09,35.72,1.4,4.51.26,1.86,1.95-2.76,5.64-3.24,2.59-8.42,6.59-14.82,11.1Z"></path>
  <path fill="#D4FF00" d="M61.48,83.06c7.07-4.5,13.87-8.51,18.36-11.1,6.4-3.68,8.82-5.38,14.1-5.64,6.32-.31,39.9-1.4,39.9-1.4,0,0-30.16-1.05-36.53-1.32-6.36-.27-1.73-3.37-1.73-3.37,0,0-5.15,3.15-11.8,3.37l-40.47,1.32s30.33,1.09,35.72,1.4c4.51.26,1.86,1.95-2.76,5.64-3.24,2.59-8.42,6.59-14.82,11.1Z"></path>
  <g>
    <path fill="#D4FF00" d="M159.54,35.13c-7.07,4.5-13.87,8.51-18.36,11.1-6.4,3.68-8.82,5.38-14.1,5.64-6.32.31-39.9,1.4-39.9,1.4,0,0,30.76,1.01,36.53,1.32,3.92.21,2.99,1.28-1.17,4.63-4.26,3.43-6.86,5.27-6.86,5.27,0,0,2.89-1.84,8.88-5.27,5.86-3.35,8.13-4.42,12.68-4.63,6.69-.31,40.47-1.32,40.47-1.32,0,0-30.33-1.09-35.72-1.4-4.51-.26-1.86-1.95,2.76-5.64,3.24-2.59,8.42-6.59,14.82-11.1Z"></path>
    <path fill="#D4FF00" d="M143.89,27.69c-7.07,4.5-13.87,8.51-18.36,11.1-6.4,3.68-8.82,5.38-14.1,5.64-6.32.31-39.9,1.4-39.9,1.4,0,0,30.16,1.05,36.53,1.32,6.36.27,1.73,3.37,1.73,3.37,0,0,5.15-3.15,11.8-3.37l40.47-1.32s-30.33-1.09-35.72-1.4c-4.51-.26-1.86-1.95,2.76-5.64,3.24-2.59,8.42-6.59,14.82-11.1Z"></path>
  </g>
</svg></svg></g></g><defs><clipPath id="SvgjsClipPath1263"><rect width="1000" height="1000" x="0" y="0" rx="150" ry="150"></rect></clipPath></defs></svg>